<svg width="867" height="294" xmlns="http://www.w3.org/2000/svg" xmlns:xlink="http://www.w3.org/1999/xlink" xml:space="preserve" overflow="hidden"><g transform="translate(-737 -320)"><g><path d="M1100.1 437.66 1127 437.66 1127 457.34 1093.54 457.34ZM787 385 1117.65 385 1100.1 437.66 1063.17 437.66 1063.17 457.34 1093.54 457.34 1075.99 510 787 510Z" fill="#009947" fill-rule="evenodd" fill-opacity="1"/><text fill="#FFFFFF" fill-opacity="1" font-family="Eurostile,Eurostile_MSFontService,sans-serif" font-style="normal" font-variant="normal" font-weight="700" font-stretch="normal" font-size="128" text-anchor="start" direction="ltr" writing-mode="lr-tb" unicode-bidi="normal" text-decoration="none" transform="matrix(1 0 0 1 819.83 491)">SIM</text><text fill="#000000" fill-opacity="1" font-family="Helvetica Neue,Helvetica Neue_MSFontService,sans-serif" font-style="normal" font-variant="normal" font-weight="700" font-stretch="condensed" font-size="138" text-anchor="start" direction="ltr" writing-mode="lr-tb" unicode-bidi="normal" text-decoration="none" transform="matrix(1 0 0 1 1148.45 498)">PANEL</text><path d="M1441.5 371.917 1499.85 371.917C1502.38 371.917 1504.43 373.969 1504.43 376.5L1504.43 448.309 1499.85 443.726 1558.19 443.726C1560.73 443.726 1562.78 445.778 1562.78 448.309 1562.78 450.84 1560.73 452.893 1558.19 452.893L1499.85 452.893C1497.32 452.893 1495.26 450.84 1495.26 448.309L1495.26 376.5 1499.85 381.083 1441.5 381.083C1438.97 381.083 1436.92 379.031 1436.92 376.5 1436.92 373.969 1438.97 371.917 1441.5 371.917ZM1441.5 385.667C1436.44 385.667 1432.33 381.563 1432.33 376.5 1432.33 371.437 1436.44 367.333 1441.5 367.333 1446.56 367.333 1450.67 371.437 1450.67 376.5 1450.67 381.563 1446.56 385.667 1441.5 385.667ZM1558.19 434.559 1571.94 448.309 1558.19 462.059 1544.44 448.309Z" fill="#0070C0" fill-rule="nonzero" fill-opacity="1"/><path d="M1519.92 523.144 1519.92 421.622C1519.92 419.094 1521.96 417.043 1524.49 417.039L1588.65 416.917C1591.18 416.912 1593.24 418.96 1593.24 421.491 1593.25 424.023 1591.2 426.078 1588.67 426.083L1524.51 426.205 1529.08 421.622 1529.08 523.144C1529.08 525.675 1527.03 527.727 1524.5 527.727 1521.97 527.727 1519.92 525.675 1519.92 523.144ZM1588.54 407.751 1602.41 421.378 1588.78 435.249 1574.91 421.622Z" fill="#C00000" fill-rule="nonzero" fill-opacity="1"/><path d="M5.40373e-05-4.58333 30.6102-4.58297C33.1415-4.58294 35.1935-2.53089 35.1935 0.00041493 35.1935 2.53172 33.1414 4.58372 30.6101 4.58369L-5.40373e-05 4.58333C-2.53136 4.5833-4.58336 2.53125-4.58333-5.40373e-05-4.5833-2.53136-2.53125-4.58336 5.40373e-05-4.58333ZM30.6103-9.16631C35.6729-9.16625 39.7769-5.06214 39.7768 0.000468967 39.7768 5.06308 35.6727 9.16709 30.6101 9.16703 25.5475 9.16697 21.4434 5.06286 21.4435 0.000252818 21.4436-5.06236 25.5477-9.16637 30.6103-9.16631Z" fill="#C00000" fill-rule="nonzero" fill-opacity="1" transform="matrix(-1 0 0 1 1524.11 525.5)"/></g></g></svg>