<svg width="490" height="275" xmlns="http://www.w3.org/2000/svg" xmlns:xlink="http://www.w3.org/1999/xlink" xml:space="preserve" overflow="hidden"><g transform="translate(-990 -673)"><g><path d="M1166.19 785.66 1176 785.66 1176 805.34 1163.8 805.34ZM1052 733 1172.59 733 1166.19 785.66 1152.72 785.66 1152.72 805.34 1163.8 805.34 1157.4 858 1052 858Z" fill="#009947" fill-rule="evenodd" fill-opacity="1"/><text fill="#FFFFFF" fill-opacity="1" font-family="Eurostile,Eurostile_MSFontService,sans-serif" font-style="normal" font-variant="normal" font-weight="700" font-stretch="normal" font-size="128" text-anchor="start" direction="ltr" writing-mode="lr-tb" unicode-bidi="normal" text-decoration="none" transform="matrix(1 0 0 1 1071.94 838)">S</text><g><g><g><path d="M1240.72 765.204C1240.72 775.404 1232.45 783.673 1222.25 783.673 1212.05 783.673 1203.78 775.404 1203.78 765.204 1203.78 755.004 1212.05 746.735 1222.25 746.735 1232.45 746.735 1240.72 755.004 1240.72 765.204Z" fill="#000000" fill-rule="nonzero" fill-opacity="1"/><path d="M1339.22 765.204C1339.22 775.404 1330.95 783.673 1320.75 783.673 1310.55 783.673 1302.28 775.404 1302.28 765.204 1302.28 755.004 1310.55 746.735 1320.75 746.735 1330.95 746.735 1339.22 755.004 1339.22 765.204Z" fill="#000000" fill-rule="nonzero" fill-opacity="1"/><path d="M1308.44 854.264 1308.44 835.796C1308.44 832.923 1307.21 830.05 1304.74 828.408 1299.82 824.304 1293.25 821.431 1286.69 819.789 1282.17 818.558 1276.84 817.327 1271.5 817.327 1266.57 817.327 1261.24 818.148 1256.31 819.789 1249.75 821.431 1243.59 824.714 1238.26 828.408 1235.79 830.46 1234.56 832.923 1234.56 835.796L1234.56 854.264 1308.44 854.264Z" fill="#000000" fill-rule="nonzero" fill-opacity="1"/><path d="M1289.97 793.933C1289.97 804.133 1281.7 812.402 1271.5 812.402 1261.3 812.402 1253.03 804.133 1253.03 793.933 1253.03 783.733 1261.3 775.465 1271.5 775.465 1281.7 775.465 1289.97 783.733 1289.97 793.933Z" fill="#000000" fill-rule="nonzero" fill-opacity="1"/><path d="M1353.99 799.679C1349.07 795.575 1342.5 792.702 1335.94 791.06 1331.42 789.829 1326.09 788.598 1320.75 788.598 1315.82 788.598 1310.49 789.419 1305.56 791.06 1303.1 791.881 1300.64 792.702 1298.18 793.933L1298.18 794.344C1298.18 801.321 1295.3 807.887 1290.79 812.402 1298.59 814.865 1304.74 818.148 1309.67 821.842 1310.9 823.073 1312.13 823.894 1312.95 825.535L1357.69 825.535 1357.69 807.067C1357.69 804.194 1356.46 801.321 1353.99 799.679Z" fill="#000000" fill-rule="nonzero" fill-opacity="1"/><path d="M1233.33 821.842 1233.33 821.842C1239.08 817.737 1245.64 814.454 1252.21 812.402 1247.7 807.477 1244.82 801.321 1244.82 794.344 1244.82 793.933 1244.82 793.933 1244.82 793.523 1242.36 792.702 1239.9 791.471 1237.44 791.06 1232.92 789.829 1227.59 788.598 1222.25 788.598 1217.32 788.598 1211.99 789.419 1207.06 791.06 1200.5 793.112 1194.34 795.985 1189.01 799.679 1186.54 801.321 1185.31 804.194 1185.31 807.067L1185.31 825.535 1229.64 825.535C1230.87 823.894 1231.69 823.073 1233.33 821.842Z" fill="#000000" fill-rule="nonzero" fill-opacity="1"/></g></g></g><path d="M1315.5 716.917 1373.85 716.917C1376.38 716.917 1378.43 718.969 1378.43 721.5L1378.43 793.309 1373.85 788.726 1432.19 788.726C1434.73 788.726 1436.78 790.778 1436.78 793.309 1436.78 795.841 1434.73 797.893 1432.19 797.893L1373.85 797.893C1371.32 797.893 1369.26 795.841 1369.26 793.309L1369.26 721.5 1373.85 726.083 1315.5 726.083C1312.97 726.083 1310.92 724.031 1310.92 721.5 1310.92 718.969 1312.97 716.917 1315.5 716.917ZM1315.5 730.667C1310.44 730.667 1306.33 726.563 1306.33 721.5 1306.33 716.437 1310.44 712.333 1315.5 712.333 1320.56 712.333 1324.67 716.437 1324.67 721.5 1324.67 726.563 1320.56 730.667 1315.5 730.667ZM1432.19 779.559 1445.94 793.309 1432.19 807.059 1418.44 793.309Z" fill="#0070C0" fill-rule="nonzero" fill-opacity="1"/><path d="M1394.92 868.144 1394.92 766.622C1394.92 764.094 1396.96 762.044 1399.49 762.039L1463.65 761.917C1466.18 761.912 1468.24 763.96 1468.24 766.491 1468.25 769.023 1466.2 771.079 1463.67 771.083L1399.51 771.205 1404.08 766.622 1404.08 868.144C1404.08 870.675 1402.03 872.727 1399.5 872.727 1396.97 872.727 1394.92 870.675 1394.92 868.144ZM1463.54 752.751 1477.41 766.378 1463.78 780.25 1449.91 766.622Z" fill="#C00000" fill-rule="nonzero" fill-opacity="1"/><path d="M5.40373e-05-4.58333 30.6102-4.58297C33.1415-4.58294 35.1935-2.53089 35.1935 0.00041493 35.1935 2.53172 33.1414 4.58372 30.6101 4.58369L-5.40373e-05 4.58333C-2.53136 4.5833-4.58336 2.53125-4.58333-5.40373e-05-4.5833-2.53136-2.53125-4.58336 5.40373e-05-4.58333ZM30.6103-9.16631C35.6729-9.16625 39.7769-5.06214 39.7768 0.000468967 39.7768 5.06308 35.6727 9.16709 30.6101 9.16703 25.5475 9.16697 21.4434 5.06286 21.4435 0.000252818 21.4436-5.06236 25.5477-9.16637 30.6103-9.16631Z" fill="#C00000" fill-rule="nonzero" fill-opacity="1" transform="matrix(-1 0 0 1 1398.11 869.5)"/><path d="M1431.19 819 1419 826.505 1445.81 843 1458 835.495Z" fill="#0070C0" fill-rule="evenodd" fill-opacity="1"/><path d="M1473 826.783 1445.73 810 1434 817.217 1461.27 834Z" fill="#C00000" fill-rule="evenodd" fill-opacity="1"/><path d="M1419 832.745 1419 859.362 1444 875 1444 845.638 1419 830Z" fill="#000000" fill-rule="evenodd" fill-opacity="1"/><path d="M1456.87 850.213 1451.23 853.54 1451.23 847.717 1456.87 844.39 1456.87 850.213ZM1448 845.638 1448 875 1473 859.362 1473 830 1448 845.638Z" fill="#000000" fill-rule="evenodd" fill-opacity="1"/></g></g></svg>