<svg width="866" height="293" xmlns="http://www.w3.org/2000/svg" xmlns:xlink="http://www.w3.org/1999/xlink" xml:space="preserve" overflow="hidden"><g transform="translate(-3029 -582)"><g><path d="M3392.02 700.66 3419 700.66 3419 720.34 3385.45 720.34ZM3078 648 3409.63 648 3392.02 700.66 3354.99 700.66 3354.99 720.34 3385.45 720.34 3367.84 773 3078 773Z" fill="#009947" fill-rule="evenodd" fill-opacity="1"/><text fill="#000000" fill-opacity="1" font-family="Eurostile,Eurostile_MSFontService,sans-serif" font-style="normal" font-variant="normal" font-weight="700" font-stretch="normal" font-size="128" text-anchor="start" direction="ltr" writing-mode="lr-tb" unicode-bidi="normal" text-decoration="none" transform="matrix(1 0 0 1 3111.47 754)">SIM</text><text fill="#FFFFFF" fill-opacity="1" font-family="Helvetica Neue,Helvetica Neue_MSFontService,sans-serif" font-style="normal" font-variant="normal" font-weight="700" font-stretch="condensed" font-size="138" text-anchor="start" direction="ltr" writing-mode="lr-tb" unicode-bidi="normal" text-decoration="none" transform="matrix(1 0 0 1 3440.09 761)">PANEL</text><path d="M3732.5 634.917 3790.85 634.917C3793.38 634.917 3795.43 636.969 3795.43 639.5L3795.43 711.309 3790.85 706.726 3849.19 706.726C3851.73 706.726 3853.78 708.778 3853.78 711.309 3853.78 713.84 3851.73 715.893 3849.19 715.893L3790.85 715.893C3788.32 715.893 3786.26 713.84 3786.26 711.309L3786.26 639.5 3790.85 644.083 3732.5 644.083C3729.97 644.083 3727.92 642.031 3727.92 639.5 3727.92 636.969 3729.97 634.917 3732.5 634.917ZM3732.5 648.667C3727.44 648.667 3723.33 644.562 3723.33 639.5 3723.33 634.437 3727.44 630.333 3732.5 630.333 3737.56 630.333 3741.67 634.437 3741.67 639.5 3741.67 644.562 3737.56 648.667 3732.5 648.667ZM3849.19 697.559 3862.94 711.309 3849.19 725.059 3835.44 711.309Z" fill="#0070C0" fill-rule="nonzero" fill-opacity="1"/><path d="M3811.92 786.144 3811.92 684.622C3811.92 682.094 3813.96 680.043 3816.49 680.039L3880.65 679.917C3883.18 679.912 3885.24 681.96 3885.24 684.491 3885.25 687.023 3883.2 689.078 3880.67 689.083L3816.51 689.205 3821.08 684.622 3821.08 786.144C3821.08 788.675 3819.03 790.727 3816.5 790.727 3813.97 790.727 3811.92 788.675 3811.92 786.144ZM3880.54 670.75 3894.41 684.378 3880.78 698.249 3866.91 684.622Z" fill="#C00000" fill-rule="nonzero" fill-opacity="1"/><path d="M5.40373e-05-4.58333 30.6102-4.58297C33.1415-4.58294 35.1935-2.53089 35.1935 0.00041493 35.1935 2.53172 33.1414 4.58372 30.6101 4.58369L-5.40373e-05 4.58333C-2.53136 4.5833-4.58336 2.53125-4.58333-5.40373e-05-4.5833-2.53136-2.53125-4.58336 5.40373e-05-4.58333ZM30.6103-9.16631C35.6729-9.16625 39.7769-5.06214 39.7768 0.000468967 39.7768 5.06308 35.6727 9.16709 30.6101 9.16703 25.5475 9.16697 21.4434 5.06286 21.4435 0.000252818 21.4436-5.06236 25.5477-9.16637 30.6103-9.16631Z" fill="#C00000" fill-rule="nonzero" fill-opacity="1" transform="matrix(-1 0 0 1 3815.11 788.5)"/></g></g></svg>